<svg width="334" height="317" viewBox="0 0 334 317" fill="none" xmlns="http://www.w3.org/2000/svg">
<path d="M50.0355 3.85655e-06H283.535C296.805 3.85655e-06 309.532 5.27159 318.915 14.6551C328.298 24.0385 333.57 36.7653 333.57 50.0355V183.463C333.57 196.734 328.298 209.46 318.915 218.844C309.532 228.227 296.805 233.499 283.535 233.499H167.486L60.0092 313.689C57.5278 315.541 54.5801 316.665 51.496 316.936C48.4119 317.207 45.3132 316.614 42.5468 315.224C39.7804 313.834 37.4556 311.702 35.8326 309.065C34.2095 306.429 33.3523 303.392 33.357 300.296V233.482C24.5102 233.482 16.0257 229.968 9.77004 223.712C3.51439 217.457 0 208.972 0 200.125V50.0188C0 36.7486 5.27158 24.0219 14.6551 14.6384C24.0385 5.25491 36.7653 3.85655e-06 50.0355 3.85655e-06Z" fill="white" fill-opacity="0.1"/>
</svg>
